<svg xmlns="http://www.w3.org/2000/svg" width="397.911px" height="74.205px" viewBox="0 0 397.911 74.205">
<g>
	<path fill="#ffffff" d="M279.679,41.807c-0.434-0.005-0.847,0.183-1.17,0.473c-0.307,0.271-0.544,0.621-0.553,1.055v4.02
		c-0.018,0.441,0.221,0.842,0.535,1.141c0.315,0.314,0.736,0.527,1.188,0.527h25.31v18.482c0,0.37,0.103,0.753,0.393,1.033
		c0.289,0.269,0.68,0.371,1.055,0.371h3.577c2.19,0,3.961-1.711,3.961-3.816v-16.07h25.122c0.427,0,0.835-0.205,1.115-0.512
		c0.294-0.297,0.464-0.688,0.464-1.098v-5.605H279.679z M290.556,37.685h39.391c0.425,0,0.834-0.196,1.123-0.511
		c0.29-0.297,0.46-0.693,0.451-1.085v-5.402h-35.533v-4.449h32.326c0.425,0,0.842-0.204,1.114-0.519
		c0.297-0.298,0.467-0.689,0.467-1.089v-5.088h-33.907v-4.134h33.33c0.417,0,0.833-0.196,1.105-0.511
		c0.289-0.29,0.468-0.689,0.468-1.089V8.406h-42.143c-0.439-0.008-0.847,0.187-1.166,0.477c-0.311,0.264-0.565,0.621-0.565,1.063
		v24.489C287.017,36.587,289.084,37.685,290.556,37.685z"/>
	<path fill="#ffffff" d="M265.424,29.087V5.317h-7.524c-0.375-0.009-0.774,0.085-1.061,0.375c-0.293,0.271-0.395,0.663-0.395,1.021
		v32.726c-12.4,3.764-27.331,3.463-28.553,3.463c-1.293,0-1.246-0.324-1.246-1.056V9.129h-7.512c-0.388,0-0.779,0.102-1.068,0.378
		c-0.293,0.276-0.395,0.659-0.387,1.025v34.265c0,3.365,1.816,6.249,10.312,5.756c7.495-0.435,21.022-1.677,28.454-4.033v20.984
		c0,0.37,0.11,0.753,0.395,1.033c0.286,0.269,0.669,0.371,1.051,0.371h3.582c2.179,0,3.952-1.711,3.952-3.816v-28.59h8.64
		c0.396,0,0.8-0.145,1.094-0.4c0.289-0.247,0.502-0.613,0.493-1.004v-6.011H265.424z"/>
	<path fill="#ffffff" d="M390.394,5.317c-0.383-0.009-0.773,0.085-1.067,0.375c-0.285,0.271-0.388,0.663-0.388,1.021V26.51h-9.388
		c-1.055-10.694-7.159-18.887-17.454-18.887c-11.494,0-17.614,9.98-17.614,22.282c0,12.298,5.973,22.265,17.614,22.265
		c10.185,0,16.237-7.964,17.411-18.436h9.431v33.771c0,0.37,0.103,0.753,0.388,1.033c0.285,0.269,0.677,0.371,1.059,0.371h3.574
		c2.187,0,3.952-1.711,3.952-3.816V5.317H390.394z M362.097,45.095c-5.861,0-8.869-6.807-8.869-15.19
		c0-8.389,3.075-15.187,8.869-15.187c5.718,0,8.878,6.798,8.878,15.187C370.975,38.289,367.827,45.095,362.097,45.095z"/>
	<path fill="#ffffff" d="M200.557,29.087V5.317h-7.517c-0.383-0.009-0.778,0.085-1.059,0.375c-0.293,0.271-0.396,0.663-0.396,1.021
		v60.792c0,0.37,0.11,0.753,0.396,1.033c0.281,0.269,0.672,0.371,1.051,0.371h3.573c2.187,0,3.952-1.711,3.952-3.816v-28.59h8.644
		c0.4,0,0.8-0.145,1.09-0.4c0.297-0.247,0.502-0.613,0.493-1.004v-6.011H200.557z M147.86,19.355
		c-0.306,0.272-0.562,0.621-0.565,1.063v3.803c0,0.442,0.229,0.842,0.54,1.14c0.319,0.315,0.736,0.527,1.187,0.519h8.741
		c-3.769,2.825-5.879,7.207-5.879,12.136c0,9.652,7.372,15.396,16.467,15.396c9.094,0,16.454-6.321,16.454-15.396
		c0-4.93-2.144-9.312-5.913-12.136h8.789c0.425,0,0.837-0.187,1.11-0.501c0.297-0.298,0.464-0.698,0.464-1.09v-5.402h-40.233
		C148.587,18.887,148.183,19.07,147.86,19.355z M168.351,29.08c5.071,0,8.277,3.828,8.277,8.55c0,5.041-3.713,8.55-8.277,8.55
		c-4.573,0-8.282-3.191-8.282-8.55C160.069,32.908,163.233,29.08,168.351,29.08z M158.682,15.203h8.805
		c3.135,0,8.683-0.06,12.358-2.867c0.579-0.46,0.927-0.842,0.927-1.634V5.3c-4.049,2.424-7.588,2.893-13.651,2.893h-8.439
		c-0.442-0.004-0.851,0.187-1.174,0.472c-0.311,0.268-0.553,0.625-0.561,1.059v3.812c0,0.438,0.226,0.834,0.544,1.136
		C157.806,14.991,158.227,15.203,158.682,15.203z"/>
	<path fill-rule="evenodd" clip-rule="evenodd" fill="#ac145a" d="M61.686,74.205c34.06,0,61.821-16.718,61.821-37.106
		C123.507,16.462,95.746,0,61.686,0C27.569,0,0,16.462,0,37.098C0,57.487,27.569,74.205,61.686,74.205z"/>
	<path fill="#ffffff" d="M70.401,55.956h3.174c1.425,0,2.582-1.056,2.582-2.349V24.553h12.485v31.402h6.815
		c1.42,0,2.573-1.056,2.573-2.349V24.553h10.643c0.43,0,0.821-0.102,1.179-0.264c0.82-0.391,1.403-1.165,1.403-2.076v-3.109l0,0
		v-0.009H69.75c-1.017,0-1.88,0.541-2.314,1.306c-0.166,0.324-0.272,0.672-0.272,1.038V45.35L51.787,20.92
		c-1.085-1.616-1.651-1.825-3.675-1.825h-3.91c-0.897,0-1.688,0.43-2.157,1.051c-0.264,0.375-0.43,0.825-0.43,1.293v12.783H24.974
		V19.095h-6.819c-0.813,0-1.536,0.345-2.007,0.88c-0.357,0.4-0.583,0.911-0.583,1.464v34.516l0,0l0,0h6.823
		c1.43,0,2.586-1.056,2.586-2.349V39.684h16.641v16.271h0.005l0,0h6.415c1.425,0,2.586-1.056,2.586-2.349V30.321l14.664,22.792
		C67.096,55.589,67.053,55.956,70.401,55.956z"/>
</g>
</svg>
