<svg xmlns="http://www.w3.org/2000/svg" width="481.55px" height="74.196px" viewBox="0 0 481.55 74.196">
<g>
	<g>
		<path fill-rule="evenodd" clip-rule="evenodd" fill="#B01657" d="M61.689,74.196c34.125,0,61.923-16.727,61.923-37.11
			C123.613,16.454,95.814,0,61.689,0S0,16.454,0,37.086C0,57.47,27.565,74.196,61.689,74.196z"/>
		<path fill="#FFFFFF" d="M70.427,55.938h3.165c1.421,0,2.586-1.046,2.586-2.34V24.541h12.516v31.397h6.823
			c1.425,0,2.583-1.046,2.583-2.34V24.541h10.651c0.442,0,0.833-0.098,1.191-0.259c0.817-0.392,1.396-1.175,1.396-2.086v-3.104l0,0
			l0,0H69.763c-1.012,0-1.879,0.536-2.314,1.31c-0.161,0.312-0.263,0.664-0.263,1.043v23.894L51.795,20.912
			c-1.08-1.621-1.65-1.82-3.675-1.82h-3.897c-0.901,0-1.693,0.417-2.161,1.06c-0.272,0.361-0.425,0.804-0.425,1.293v12.774H24.996
			V19.092h-6.832c-0.816,0-1.54,0.34-2.016,0.885c-0.357,0.391-0.579,0.91-0.579,1.468v34.494l0,0l0,0h6.832
			c1.42,0,2.595-1.046,2.595-2.34V39.663h16.641v16.275l0,0l0,0h6.406c1.438,0,2.595-1.046,2.595-2.34V30.313l14.667,22.801
			C67.109,55.59,67.075,55.938,70.427,55.938z"/>
	</g>
	<g>
		<path fill="#ffffff" d="M233.729,24.983c-2.867-2.51-7.07-3.654-12.634-3.696l-0.017,0.791v-0.791
			c-5.461,0-10.498,1.004-15.084,3.02l-0.723,0.307l2.544,5.993l0.766-0.327c3.573-1.557,7.129-2.323,10.677-2.323
			c2.953-0.008,5.13,0.575,6.568,1.693c1.412,1.09,2.11,2.723,2.119,4.974c0,0,0,0.008,0,0.072v1.999
			c-7.819,0.731-13.672,2.085-17.578,4.075c-5.028,2.582-7.606,6.56-7.597,11.766c0.009,4.318,1.557,7.717,4.722,9.908
			c3.147,2.19,7.75,3.202,13.918,3.244c6.661,0,12.03-0.97,16.105-2.935l0.459-0.226V36.149
			C237.939,31.267,236.595,27.488,233.729,24.983z M212.884,52.212c0-0.016,0-0.033,0-0.042c0.026-3.488,1.353-5.964,4.042-7.542
			c2.144-1.26,5.836-2.221,11.018-2.846v16.947c-1.574,0.715-3.531,1.076-5.854,1.076c-3.131,0-5.437-0.643-6.959-1.894
			c-1.48-1.259-2.237-3.113-2.246-5.64l0,0v-0.026V52.212z"/>
		<path fill="#ffffff" d="M280.444,25.26c-3.063-2.654-7.785-3.973-14.114-3.973c-6.984,0-12.778,0.97-17.407,2.938l-0.477,0.2
			v40.48h10.686V28.978c2.043-0.74,4.313-1.105,6.79-1.105c2.688,0,4.653,0.574,5.93,1.701c1.276,1.123,1.939,2.782,1.939,5.058
			c0,0.026,0,0.034,0,0.056v30.22h10.678V34.495C284.494,30.62,283.124,27.506,280.444,25.26z"/>
		<path fill="#ffffff" d="M323.45,24.983c-2.858-2.51-7.078-3.654-12.642-3.696l-0.009,0.791v-0.791
			c-5.471,0-10.499,1.004-15.084,3.028l-0.723,0.307l2.561,5.984l0.739-0.327c3.591-1.557,7.139-2.323,10.669-2.323
			c2.969,0,5.147,0.575,6.568,1.693c1.403,1.09,2.118,2.731,2.135,4.974l-0.009,0.008c0,0.009,0,0.034,0.009,0.064v1.99
			c-7.818,0.74-13.672,2.094-17.585,4.084c-5.02,2.569-7.615,6.56-7.605,11.775c0.024,4.309,1.565,7.707,4.738,9.898
			c3.147,2.19,7.76,3.202,13.927,3.244c6.645,0,12.013-0.97,16.098-2.935l0.467-0.221V36.142
			C327.67,31.258,326.317,27.488,323.45,24.983z M302.606,52.212c0-0.008,0-0.016,0-0.016c0.018-3.515,1.345-5.99,4.051-7.568
			c2.144-1.26,5.811-2.221,11.008-2.846v16.947c-1.582,0.715-3.539,1.085-5.853,1.085c-3.122,0-5.438-0.651-6.942-1.902
			c-1.488-1.242-2.246-3.088-2.264-5.605v-0.018V52.212z"/>
		<path fill="#ffffff" d="M399.348,43.3c0-6.69-1.564-12.042-4.662-16.023c-3.344-4.279-8.158-6.433-14.327-6.433v0.809v-0.809
			c-6.134,0-10.933,2.136-14.31,6.433c-3.131,3.981-4.688,9.333-4.688,16.023c0,6.649,1.557,11.976,4.671,15.948
			c3.386,4.296,8.168,6.432,14.275,6.432h0.051c6.109,0.008,10.924-2.126,14.319-6.423c2.978-3.82,4.534-8.874,4.653-15.148h0.017
			V43.3z M371.988,43.177c0-5.24,0.722-9.248,2.144-11.834c1.437-2.586,3.368-3.807,6.235-3.854
			c2.851,0.048,4.782,1.269,6.202,3.854c1.421,2.586,2.152,6.594,2.152,11.834c0,5.131-0.74,9.035-2.152,11.554
			c-1.412,2.514-3.352,3.714-6.211,3.752c-2.875-0.033-4.798-1.229-6.227-3.743C372.71,52.212,371.988,48.308,371.988,43.177z"/>
		<path fill="#ffffff" d="M443.053,22.078h-10.694v35.247c-1.65,0.859-3.813,1.302-6.509,1.302c-0.017,0-0.034,0-0.06,0
			c-2.476,0-4.322-0.582-5.504-1.71l-0.571,0.563l0,0l0.571-0.563c-1.2-1.123-1.813-2.791-1.821-5.105v-0.008V22.078h-10.702v29.134
			c0.025,4.777,1.454,8.495,4.467,10.945c2.994,2.438,7.409,3.557,13.255,3.599c6.898,0,12.608-1.075,17.126-3.236l0.451-0.226
			L443.053,22.078z"/>
		<path fill="#ffffff" d="M480.707,21.899c-3.353-0.753-6.508-1.056-9.375-1.056c-10.371,0.009-17.109,3.837-17.186,3.889
			l-0.408,0.226v39.938h10.71V29.122c1.184-0.477,3.515-1.132,6.714-1.118c2.127,0,4.646,0.285,7.469,1.076l0.775,0.217l2.144-7.219
			L480.707,21.899z"/>
		<path fill="#ffffff" d="M195.052,9.878h-10.694v21.839c0,0.103-0.102,0.247-0.307,0.247h-20.878c-0.212,0-0.306-0.145-0.306-0.247
			V9.878h-10.711v55.019h10.711V39.152c0-0.102,0.093-0.221,0.306-0.229h20.878c0.205,0.009,0.307,0.128,0.307,0.247v25.727h10.694
			v-0.795V9.878z"/>
		<polygon fill="#ffffff" points="367.027,9.878 324.029,9.869 324.029,16.833 340.193,16.837 340.193,64.896 350.88,64.896
			350.88,16.837 367.027,16.837 		"/>
	</g>
</g>
</svg>
